<svg xmlns="http://www.w3.org/2000/svg" viewBox="27 -4486.5 290 71.446">
  <g id="Group_35" data-name="Group 35" transform="translate(-359 -4164.5)">
    <path id="Path_1" data-name="Path 1" d="M59.855,165.718a18.525,18.525,0,1,0-24.237-24.237,18.525,18.525,0,1,0-24.237,24.237,18.525,18.525,0,1,0,24.237,24.237,18.525,18.525,0,0,0,35.618-7.166A18.681,18.681,0,0,0,59.855,165.718Zm1.9-17.071a9.062,9.062,0,1,1-9.062-9.063A9.271,9.271,0,0,1,61.751,148.647Z" transform="translate(386 -452.1)"/>
    <path id="Path_2" data-name="Path 2" d="M93.351,153.283c-1.265,5.9-5.69,9.273-11.17,9.273a11.118,11.118,0,0,1-9.906-5.69c-1.054-1.9-1.475-2.74-1.475-10.538s.422-8.641,1.475-10.538a11.389,11.389,0,0,1,9.906-5.69,11.023,11.023,0,0,1,11.17,9.484H88.293a6.379,6.379,0,0,0-6.112-4.637,5.691,5.691,0,0,0-4.847,2.318c-1.265,1.686-1.686,2.529-1.686,9.063s.422,7.376,1.686,9.063a6.314,6.314,0,0,0,4.847,2.318c2.74,0,4.847-1.475,6.112-4.426h5.058Z" transform="translate(464.415 -452.1)"/>
    <path id="Path_3" data-name="Path 3" d="M84.575,135.79a11.389,11.389,0,0,1,9.906-5.69,11.118,11.118,0,0,1,9.906,5.69c1.054,1.9,1.475,2.74,1.475,10.538s-.422,8.641-1.475,10.538a11.389,11.389,0,0,1-9.906,5.69,11.118,11.118,0,0,1-9.906-5.69c-1.054-1.9-1.475-2.74-1.475-10.538S83.522,137.687,84.575,135.79Zm5.058,19.6a6.314,6.314,0,0,0,4.847,2.318,5.691,5.691,0,0,0,4.847-2.318c1.265-1.686,1.686-2.529,1.686-9.063s-.422-7.376-1.686-9.062a6.314,6.314,0,0,0-4.847-2.318,5.691,5.691,0,0,0-4.847,2.318c-1.265,1.686-1.686,2.529-1.686,9.062S88.369,153.7,89.633,155.391Z" transform="translate(478.038 -452.1)"/>
    <path id="Path_4" data-name="Path 4" d="M96.1,130.2h4.847v27.4h15.6v4.637H96.1V130.2Z" transform="translate(492.436 -451.989)"/>
    <path id="Path_5" data-name="Path 5" d="M108.475,135.79a11.389,11.389,0,0,1,9.906-5.69,11.118,11.118,0,0,1,9.906,5.69c1.054,1.9,1.475,2.74,1.475,10.538s-.421,8.641-1.475,10.538a11.389,11.389,0,0,1-9.906,5.69,11.118,11.118,0,0,1-9.906-5.69c-1.054-1.9-1.475-2.74-1.475-10.538S107.422,137.687,108.475,135.79Zm5.058,19.6a6.314,6.314,0,0,0,4.847,2.318,5.691,5.691,0,0,0,4.847-2.318c1.265-1.686,1.686-2.529,1.686-9.063s-.422-7.376-1.686-9.062a6.314,6.314,0,0,0-4.847-2.318,5.691,5.691,0,0,0-4.847,2.318c-1.265,1.686-1.686,2.529-1.686,9.062S112.269,153.7,113.533,155.391Z" transform="translate(504.509 -452.1)"/>
    <path id="Path_6" data-name="Path 6" d="M120,130.2h12.435a9.387,9.387,0,0,1,6.533,2.108,8.618,8.618,0,0,1,3.161,6.744,8.936,8.936,0,0,1-6.112,8.852l7.376,14.121H137.7l-6.533-13.7h-6.112v13.7H120Zm4.847,14.121h7.376c3.583,0,5.48-2.318,5.48-5.058a3.961,3.961,0,0,0-1.686-3.583,5.581,5.581,0,0,0-3.583-1.054h-7.587v9.695Z" transform="translate(518.907 -451.989)"/>
    <path id="Path_7" data-name="Path 7" d="M39.5,148.7H51.092a9.769,9.769,0,0,1,7.166,2.318,9.585,9.585,0,0,1,3.372,7.587,9.689,9.689,0,0,1-9.906,9.695H44.347v12.435H39.5Zm4.847,14.753h7.166a5.03,5.03,0,0,0,5.269-5.058,4.651,4.651,0,0,0-2.108-4.215,6.185,6.185,0,0,0-3.372-.843H44.347v10.116Z" transform="translate(429.749 -431.499)"/>
    <path id="Path_8" data-name="Path 8" d="M68.6,173.469H56.587l-2.529,7.166H49L60.592,148.6h4l11.592,32.035H71.129Zm-1.475-4.215-4.637-13.91h0l-4.637,13.91Z" transform="translate(440.27 -431.61)"/>
    <path id="Path_9" data-name="Path 9" d="M65.361,173.048a15.23,15.23,0,0,0,9.063,3.161c4,0,6.323-1.9,6.323-4.426,0-2.318-1.265-4-4.215-4.215-1.475-.211-2.529-.421-4.215-.632-5.48-.843-8.43-4.426-8.43-9.063,0-5.48,3.794-9.273,10.327-9.273a18.852,18.852,0,0,1,10.327,3.372l-2.74,4a14.9,14.9,0,0,0-7.8-2.529c-2.951,0-5.269,1.475-5.269,4.637,0,1.9,1.265,3.583,4.426,4,.843.211,2.108.211,3.583.422,5.9.632,8.852,4.847,8.852,9.273,0,5.9-4.426,9.273-11.17,9.273A18.178,18.178,0,0,1,62.2,176.63Z" transform="translate(454.89 -431.61)"/>
    <path id="Path_10" data-name="Path 10" d="M77.561,173.048a15.23,15.23,0,0,0,9.063,3.161c4,0,6.323-1.9,6.323-4.426,0-2.318-1.265-4-4.215-4.215-1.475-.211-2.529-.421-4.215-.632-5.48-.843-8.43-4.426-8.43-9.063,0-5.48,3.794-9.273,10.327-9.273a18.852,18.852,0,0,1,10.327,3.372l-2.74,4a14.9,14.9,0,0,0-7.8-2.529c-2.951,0-5.269,1.475-5.269,4.637,0,1.9,1.265,3.583,4.426,4,.843.211,2.108.211,3.583.422,5.9.632,8.852,4.847,8.852,9.273,0,5.9-4.426,9.273-11.17,9.273A18.178,18.178,0,0,1,74.4,176.63Z" transform="translate(468.402 -431.61)"/>
    <path id="Path_11" data-name="Path 11" d="M88,148.7H99.592a9.769,9.769,0,0,1,7.166,2.318,9.585,9.585,0,0,1,3.372,7.587,9.689,9.689,0,0,1-9.906,9.695H92.847v12.435H88Zm4.847,14.753h7.166a5.03,5.03,0,0,0,5.269-5.058,4.651,4.651,0,0,0-2.108-4.215,6.185,6.185,0,0,0-3.372-.843H92.847Z" transform="translate(483.465 -431.499)"/>
    <path id="Path_12" data-name="Path 12" d="M101.475,154.29a11.389,11.389,0,0,1,9.906-5.69,11.118,11.118,0,0,1,9.906,5.69c1.054,1.9,1.475,2.74,1.475,10.538,0,7.587-.421,8.641-1.475,10.538a11.389,11.389,0,0,1-9.906,5.69,11.118,11.118,0,0,1-9.906-5.69c-1.054-1.9-1.475-2.74-1.475-10.538C100.211,157.03,100.632,156.187,101.475,154.29Zm5.269,19.6a6.314,6.314,0,0,0,4.847,2.318,5.691,5.691,0,0,0,4.847-2.318c1.265-1.686,1.686-2.529,1.686-9.063s-.422-7.376-1.686-9.062a6.314,6.314,0,0,0-4.847-2.318,5.691,5.691,0,0,0-4.847,2.318c-1.265,1.686-1.686,2.529-1.686,9.063S105.48,172.2,106.744,173.891Z" transform="translate(496.756 -431.61)"/>
    <path id="Path_13" data-name="Path 13" d="M113.6,148.7h12.435a9.387,9.387,0,0,1,6.533,2.108,8.618,8.618,0,0,1,3.161,6.744,8.936,8.936,0,0,1-6.112,8.852l7.376,14.121H131.3l-6.533-13.7h-6.112v13.7h-4.847V148.7Zm4.847,13.91h7.376c3.583,0,5.48-2.318,5.48-5.058a3.961,3.961,0,0,0-1.686-3.583,5.581,5.581,0,0,0-3.583-1.054h-7.587Z" transform="translate(511.819 -431.499)"/>
    <path id="Path_14" data-name="Path 14" d="M133.452,152.915H124.6V148.7h22.34v4.215h-8.852v27.609h-4.847V152.915Z" transform="translate(524.002 -431.499)"/>
    <path id="Path_15" data-name="Path 15" d="M59.855,165.718a18.525,18.525,0,1,0-24.237-24.237,18.525,18.525,0,1,0-24.237,24.237,18.525,18.525,0,1,0,24.237,24.237,18.525,18.525,0,0,0,35.618-7.166A18.681,18.681,0,0,0,59.855,165.718Zm1.9-17.071a9.062,9.062,0,1,1-9.062-9.063A9.271,9.271,0,0,1,61.751,148.647Z" transform="translate(386 -452.1)"/>
    <g id="Group_1" data-name="Group 1" transform="translate(469.249 -321.789)">
      <path id="Path_16" data-name="Path 16" d="M39.5,130.2h4.637L53.2,151.065,62.262,130.2H66.9v31.824H62.051V142.213h0L55.307,157.6H51.092l-6.744-15.385h0v19.811H39.5Z" transform="translate(-39.5 -130.2)"/>
      <path id="Path_17" data-name="Path 17" d="M63.795,148.957,54.1,130.2h5.058L65.9,144.321,72.647,130.2H77.7L68.01,148.957v13.067H63.373V148.957Z" transform="translate(-23.33 -130.2)"/>
    </g>
    <g id="Group_2" data-name="Group 2" transform="translate(669.256 -258.563)">
      <path id="Path_18" data-name="Path 18" d="M134.4,160.2h2.108c.422,0,.843,0,1.054.422a1.61,1.61,0,0,1,.422,1.054,1.585,1.585,0,0,1-1.054,1.475l1.265,2.318h-.843l-1.054-2.318h-1.054v2.318H134.4V160.2Zm.843,2.318h1.265a.9.9,0,0,0,.632-1.475c-.211-.211-.211-.211-.632-.211h-1.265v1.686Z" transform="translate(-134.4 -160.2)"/>
    </g>
    <path id="Path_19" data-name="Path 19" d="M137.858,169.216a5.058,5.058,0,1,1,5.058-5.058A5.129,5.129,0,0,1,137.858,169.216Zm0-9.062a4,4,0,0,0-4,4,4,4,0,0,0,8.009,0A4,4,0,0,0,137.858,160.154Z" transform="translate(533.084 -419.981)"/>
  </g>
</svg>
